<svg width="656" height="630" viewBox="0 0 656 630" fill="none" xmlns="http://www.w3.org/2000/svg">
<rect width="656" height="629.224" rx="38" fill="#4D4D4D"/>
<g clip-path="url(#clip0)">
<path d="M366.825 212.98C367.296 211.975 367.929 211.027 368.74 210.162L368.77 210.13L368.818 210.078L368.854 210.043L368.898 209.996L368.938 209.956L368.979 209.914L369.024 209.871L369.072 209.822L369.109 209.787L369.152 209.746L369.188 209.712L369.246 209.657C370.099 208.858 371.045 208.228 372.046 207.761L358.377 194.076C357.662 193.36 356.715 193 355.766 193C354.82 192.999 353.873 193.356 353.157 194.072C352.442 194.787 352.084 195.736 352.084 196.684C352.084 197.632 352.442 198.58 353.157 199.296L366.825 212.98ZM386.466 222.197C385.997 223.198 385.367 224.144 384.569 224.998L384.515 225.057L384.482 225.092L384.438 225.137L384.403 225.172L384.354 225.221L384.313 225.264L384.27 225.307L384.231 225.346L384.183 225.391L384.147 225.426L384.098 225.475L384.063 225.506L384 225.564L383.965 225.597C383.137 226.355 382.219 226.962 381.246 227.417L394.913 241.104C395.629 241.819 396.576 242.177 397.525 242.177C398.473 242.178 399.419 241.82 400.134 241.105C400.85 240.391 401.208 239.444 401.208 238.494C401.208 237.546 400.85 236.599 400.134 235.881L386.466 222.197ZM380.918 305.614C382.027 306.135 383.067 306.853 383.984 307.771L384.026 307.814L384.074 307.864L384.11 307.901L384.152 307.944L384.186 307.979L384.241 308.038L384.315 308.118L384.354 308.162C385.097 308.982 385.689 309.884 386.139 310.841L399.806 297.172C400.522 296.458 400.879 295.51 400.879 294.56C400.879 293.613 400.522 292.664 399.808 291.95C399.091 291.232 398.145 290.875 397.197 290.875C396.25 290.873 395.301 291.232 394.586 291.947L380.918 305.614ZM371.717 325.26C370.715 324.79 369.773 324.158 368.917 323.36L368.86 323.306L368.823 323.271L368.78 323.23L368.744 323.194L368.694 323.146L368.651 323.103L368.609 323.06L368.568 323.017L368.525 322.974L368.483 322.931L368.442 322.887L368.401 322.843L368.361 322.8L368.32 322.757C367.56 321.926 366.954 321.007 366.497 320.033L352.829 333.702C352.113 334.417 351.756 335.364 351.756 336.312C351.756 337.262 352.113 338.209 352.829 338.925C353.544 339.641 354.49 340 355.438 340C356.387 340 357.334 339.644 358.049 338.928L371.717 325.26ZM289.003 319.658C288.546 320.631 287.94 321.55 287.18 322.378L287.148 322.412L287.09 322.474L287.058 322.51L287.01 322.559L286.975 322.595L286.93 322.641L286.891 322.683L286.849 322.726L286.806 322.767L286.756 322.816L286.719 322.85L286.677 322.892L286.64 322.927L286.582 322.982C285.727 323.779 284.783 324.41 283.783 324.879L297.451 338.563C298.165 339.279 299.113 339.637 300.062 339.637C301.01 339.639 301.956 339.281 302.681 338.555C303.393 337.833 303.744 336.896 303.744 335.956C303.744 335.006 303.387 334.06 302.671 333.344L289.003 319.658ZM269.361 310.442C269.832 309.439 270.461 308.495 271.259 307.64L271.314 307.583L271.348 307.546L271.389 307.503L271.426 307.467L271.474 307.417L271.516 307.374L271.559 307.332L271.599 307.292L271.645 307.247L271.683 307.212L271.732 307.164L271.777 307.121C272.629 306.325 273.576 305.69 274.582 305.22L260.914 291.536C260.199 290.82 259.25 290.463 258.303 290.461C257.355 290.459 256.407 290.817 255.694 291.533C254.978 292.247 254.621 293.195 254.621 294.143C254.621 295.091 254.978 296.041 255.692 296.756L269.361 310.442ZM274.252 227.68C273.265 227.216 272.332 226.597 271.492 225.815L271.447 225.774L271.404 225.732L271.361 225.692L271.317 225.649L271.273 225.608L271.23 225.566L271.187 225.525L271.146 225.481L271.097 225.43L271.062 225.393L271.02 225.351L270.987 225.315L270.931 225.256L270.855 225.177L270.816 225.132C270.076 224.313 269.482 223.41 269.034 222.453L255.366 236.123C254.65 236.837 254.292 237.785 254.292 238.734C254.292 239.681 254.65 240.628 255.366 241.344C256.081 242.062 257.027 242.419 257.975 242.421C258.923 242.421 259.871 242.064 260.587 241.349L274.252 227.68ZM283.454 208.033C284.455 208.504 285.401 209.134 286.255 209.934L286.312 209.989L286.35 210.023L286.392 210.066L286.428 210.099L286.478 210.15L286.521 210.191L286.564 210.234L286.599 210.27L286.655 210.328L286.689 210.365L286.731 210.408L286.771 210.449L286.805 210.489C287.589 211.335 288.21 212.271 288.675 213.261L302.343 199.593C303.057 198.877 303.414 197.93 303.414 196.982C303.414 196.032 303.057 195.085 302.343 194.369C301.627 193.653 300.68 193.294 299.734 193.294C298.785 193.294 297.838 193.651 297.123 194.367L283.454 208.033ZM315.188 253.579C318.705 250.065 323.309 248.309 327.915 248.313C332.52 248.315 337.125 250.077 340.64 253.593C344.154 257.113 345.911 261.721 345.911 266.331C345.911 270.937 344.154 275.545 340.64 279.059C337.125 282.574 332.52 284.329 327.915 284.325C323.309 284.322 318.705 282.563 315.19 279.043C311.675 275.525 309.919 270.916 309.919 266.307C309.919 261.699 311.675 257.092 315.188 253.579ZM372.798 221.241L372.846 221.292L372.871 221.317L372.894 221.34L372.918 221.365L372.944 221.39L373.043 221.483C374.057 222.425 375.354 222.897 376.646 222.897C377.942 222.899 379.235 222.429 380.251 221.486L380.306 221.436L380.359 221.382L380.397 221.346L380.45 221.292L380.539 221.199C381.481 220.182 381.952 218.888 381.952 217.594C381.952 216.234 381.434 214.875 380.397 213.837C379.363 212.802 378.004 212.283 376.646 212.281C375.33 212.281 374.015 212.765 372.987 213.742L372.934 213.795L372.894 213.833L372.841 213.886L372.752 213.979C371.811 214.996 371.342 216.29 371.342 217.586C371.342 218.9 371.826 220.218 372.798 221.241ZM372.673 311.576L372.617 311.631L372.592 311.654L372.566 311.681C371.53 312.716 371.013 314.075 371.013 315.434C371.013 316.728 371.483 318.023 372.425 319.042L372.475 319.096L372.527 319.15L372.566 319.188L372.619 319.242C373.652 320.245 374.985 320.745 376.318 320.747C377.676 320.747 379.034 320.228 380.069 319.195C381.106 318.157 381.622 316.799 381.622 315.44C381.622 314.124 381.137 312.806 380.16 311.779L380.108 311.725L380.069 311.685C379.034 310.648 377.676 310.13 376.318 310.129C375.006 310.129 373.693 310.61 372.673 311.576ZM283.077 311.447L283.006 311.372L282.983 311.347L282.959 311.323L282.934 311.298L282.91 311.272L282.885 311.25L282.86 311.225L282.836 311.202L282.787 311.155C281.77 310.212 280.476 309.742 279.182 309.741C277.849 309.741 276.517 310.239 275.484 311.241L275.431 311.293L275.378 311.347L275.29 311.44C274.348 312.457 273.878 313.752 273.878 315.046C273.878 316.405 274.394 317.765 275.431 318.8C276.466 319.838 277.824 320.357 279.182 320.359C280.476 320.359 281.77 319.889 282.789 318.948L282.842 318.895L282.894 318.845L282.934 318.805L282.987 318.752L283.025 318.713C284.002 317.685 284.487 316.368 284.487 315.052C284.487 313.758 284.017 312.464 283.077 311.447ZM282.507 221.709L282.559 221.66L282.583 221.636L282.606 221.614L282.633 221.587L282.656 221.563L282.706 221.511C283.676 220.484 284.158 219.173 284.158 217.86C284.158 216.544 283.674 215.228 282.696 214.198L282.644 214.144L282.606 214.104L282.552 214.054L282.512 214.015L282.46 213.964C281.443 213.021 280.148 212.549 278.854 212.549C277.496 212.548 276.138 213.066 275.103 214.102C274.066 215.135 273.548 216.495 273.548 217.855C273.548 219.188 274.047 220.523 275.065 221.571L275.103 221.609L275.155 221.662C276.189 222.665 277.521 223.166 278.854 223.166C280.169 223.167 281.485 222.681 282.507 221.709ZM283.439 305.072C284.524 305.536 285.548 306.185 286.466 307.019L286.514 307.064L286.564 307.108L286.612 307.153L286.653 307.193L286.707 307.244L286.751 307.288L286.801 307.336L286.849 307.384L286.895 307.43L286.944 307.48L286.987 307.526L287.039 307.58L287.078 307.622L287.124 307.669L287.168 307.718L287.211 307.765C288.045 308.683 288.693 309.71 289.156 310.796L314.848 295.9C318.995 293.497 323.452 292.296 327.915 292.3C332.376 292.303 336.832 293.508 340.979 295.917L366.529 310.76C367.048 309.677 367.753 308.66 368.651 307.761L368.704 307.71L368.754 307.66L368.81 307.607L368.857 307.562L368.915 307.506C369.978 306.513 371.193 305.771 372.48 305.286L357.488 279.409C355.082 275.26 353.879 270.798 353.879 266.335C353.879 261.871 355.082 257.411 357.488 253.265L372.388 227.566C371.266 227.086 370.208 226.406 369.264 225.529L369.217 225.485L369.175 225.446L369.12 225.393L369.077 225.351L369.028 225.301L368.979 225.254L368.933 225.208L368.885 225.158L368.841 225.114L368.789 225.06L368.75 225.018L368.704 224.968L368.66 224.921L368.617 224.872L368.572 224.823L368.527 224.774C367.738 223.882 367.119 222.891 366.671 221.841L340.979 236.738C336.832 239.141 332.376 240.341 327.915 240.338C323.452 240.336 318.995 239.131 314.848 236.721L288.996 221.701C288.527 222.947 287.819 224.124 286.873 225.162L286.826 225.216L286.777 225.269L286.72 225.327L286.674 225.376L286.621 225.43L286.572 225.481L286.521 225.533L286.48 225.574L286.429 225.623L286.395 225.656L286.353 225.696L286.314 225.733L286.269 225.777L286.222 225.82L286.183 225.855L286.138 225.895C285.339 226.624 284.455 227.21 283.523 227.653L298.34 253.229C300.746 257.378 301.949 261.84 301.949 266.302C301.949 270.767 300.746 275.226 298.34 279.373L283.439 305.072Z" fill="white"/>
<path d="M133.507 402.256C131.645 402.256 130.525 401.816 130.138 400.936L124.529 388.204H105.422L99.7819 401.303C99.5199 401.942 98.7567 402.256 97.4903 402.256C95.8262 402.256 94.9999 401.847 94.9999 401.03C94.9999 400.968 95.0207 400.874 95.063 400.758L112.475 360.418C112.82 359.579 113.992 359.161 115.97 359.161C117.706 359.161 118.774 359.59 119.161 360.448L136.699 400.203C136.751 400.35 136.782 400.476 136.782 400.601C136.782 401.71 135.694 402.256 133.507 402.256ZM122.991 384.771L114.871 366.343L106.929 384.771H122.991ZM142.838 402.256C140.756 402.256 139.709 401.69 139.709 400.538V372.562C139.709 371.421 140.756 370.845 142.838 370.845C144.9 370.845 145.936 371.421 145.936 372.562V374.437C147.631 372.05 150.101 370.845 153.354 370.845C155.824 370.845 157.959 371.431 159.759 372.594C160.271 372.929 160.522 373.316 160.522 373.766C160.522 374.332 160.198 374.835 159.549 375.264C158.973 375.651 158.336 375.85 157.644 375.85C156.985 375.85 156.431 375.671 155.96 375.327C154.997 374.572 153.919 374.195 152.737 374.195C150.373 374.195 148.583 375.442 147.369 377.934C146.417 379.881 145.936 382.499 145.936 385.786V400.538C145.936 401.69 144.9 402.256 142.838 402.256ZM188.647 370.887C186.575 370.887 185.549 371.452 185.549 372.604V374.468C183.195 372.102 180.035 370.918 176.079 370.918C165.616 370.918 160.383 376.153 160.383 386.624C160.383 397.094 165.616 402.329 176.079 402.329C180.014 402.329 183.174 401.135 185.549 398.769V412.265C185.549 413.406 186.575 413.982 188.647 413.982C190.729 413.982 191.775 413.406 191.775 412.265V372.604C191.775 371.452 190.729 370.887 188.647 370.887ZM176.079 374.353C179.302 374.353 181.688 375.714 183.236 378.426C184.775 381.148 185.549 383.881 185.549 386.624C185.549 389.356 184.775 392.089 183.236 394.812C181.688 397.533 179.302 398.884 176.079 398.884C172.867 398.884 170.481 397.533 168.933 394.812C167.373 392.089 166.599 389.356 166.599 386.624C166.599 383.881 167.373 381.148 168.933 378.426C170.481 375.714 172.867 374.353 176.079 374.353ZM200.08 370.824C202.152 370.824 203.178 371.389 203.178 372.542V388.425C203.178 390.822 203.837 393.146 205.145 395.387C206.453 397.638 208.515 398.769 211.34 398.769C214.364 398.769 216.583 397.543 218.016 395.104C219.449 392.654 220.161 390.152 220.161 387.597V372.542C220.161 371.389 221.197 370.824 223.259 370.824C225.341 370.824 226.387 371.389 226.387 372.542V400.486C226.387 401.627 225.341 402.203 223.259 402.203C221.197 402.203 220.161 401.627 220.161 400.486V398.643C217.911 401.03 214.856 402.235 210.963 402.235C206.882 402.235 203.524 400.926 200.897 398.318C198.27 395.712 196.963 392.424 196.963 388.456V372.542C196.963 371.389 197.998 370.824 200.08 370.824ZM234.023 368.144C231.909 368.144 230.862 367.107 230.862 365.024C230.862 362.909 231.909 361.862 234.023 361.862C236.105 361.862 237.14 362.909 237.14 365.024C237.14 367.107 236.105 368.144 234.023 368.144ZM234.023 402.256C231.93 402.256 230.894 401.69 230.894 400.538V372.562C230.894 371.421 231.93 370.845 234.023 370.845C236.084 370.845 237.11 371.421 237.11 372.562V400.538C237.11 401.69 236.084 402.256 234.023 402.256ZM256.13 402.256C249.234 402.213 245.792 399.397 245.792 393.795V374.279H242.359C240.298 374.279 239.262 373.714 239.262 372.562C239.262 371.421 240.298 370.845 242.359 370.845H245.792V360.878C245.792 359.737 246.838 359.161 248.92 359.161C251.002 359.161 252.049 359.737 252.049 360.878V370.845H257.197C259.28 370.845 260.326 371.421 260.326 372.562C260.326 373.714 259.28 374.279 257.197 374.279H252.049V393.795C252.049 397.146 253.42 398.821 256.161 398.821C256.726 398.821 257.281 398.769 257.793 398.654C258.317 398.539 258.84 398.486 259.374 398.486C261.518 398.486 262.597 399.083 262.597 400.266C262.597 401.062 261.739 401.616 260.022 401.92C258.673 402.151 257.375 402.256 256.13 402.256ZM278.949 402.256C274.303 402.256 270.389 400.874 267.208 398.099C264.017 395.335 262.426 391.545 262.426 386.739C262.426 381.849 264.038 377.975 267.281 375.128C270.515 372.28 274.502 370.845 279.22 370.845C283.72 370.845 287.592 372.029 290.836 374.395C294.09 376.75 295.712 380.289 295.712 384.99C295.712 386.299 294.687 386.949 292.615 386.949H268.61C268.653 389.974 269.573 392.717 271.373 395.177C273.173 397.627 275.705 398.852 278.98 398.852C281.324 398.852 283.501 398.224 285.51 396.947C287.613 395.607 288.754 394.005 288.942 392.162C289.036 391.105 290.051 390.571 291.976 390.571C294.079 390.571 295.127 391.137 295.127 392.256C295.127 392.832 294.959 393.524 294.613 394.34C293.849 396.14 292.416 397.743 290.291 399.125C287.1 401.218 283.323 402.256 278.949 402.256ZM289.434 383.545C288.774 377.347 285.374 374.259 279.22 374.259C273.748 374.259 270.326 377.347 268.976 383.545H289.434ZM313.937 402.256C307.041 402.213 303.599 399.397 303.599 393.795V374.279H300.167C298.105 374.279 297.07 373.714 297.07 372.562C297.07 371.421 298.105 370.845 300.167 370.845H303.599V360.878C303.599 359.737 304.645 359.161 306.728 359.161C308.81 359.161 309.856 359.737 309.856 360.878V370.845H315.005C317.087 370.845 318.133 371.421 318.133 372.562C318.133 373.714 317.087 374.279 315.005 374.279H309.856V393.795C309.856 397.146 311.227 398.821 313.969 398.821C314.534 398.821 315.088 398.769 315.601 398.654C316.125 398.539 316.647 398.486 317.181 398.486C319.326 398.486 320.404 399.083 320.404 400.266C320.404 401.062 319.546 401.616 317.83 401.92C316.48 402.151 315.183 402.256 313.937 402.256ZM349.93 402.256C349.02 402.256 348.267 402.088 347.701 401.742C346.268 400.894 345.368 399.805 345.002 398.454C343.694 399.994 341.936 401.009 339.738 401.512C337.541 402.004 335.563 402.256 333.805 402.256C331.011 402.256 328.175 401.585 325.298 400.245C322.431 398.905 320.997 396.602 320.997 393.335C320.997 389.607 322.41 387.252 325.225 386.247C328.05 385.242 330.969 384.739 333.994 384.739C334.642 384.739 335.448 384.76 336.4 384.802C337.352 384.844 338.242 384.865 339.079 384.865C341.392 384.865 343.035 384.603 344.018 384.069V381.158C344.018 376.551 341.35 374.259 336.013 374.259C334.056 374.259 332.309 374.74 330.771 375.725C328.992 376.876 328.103 378.237 328.103 379.839C328.103 380.959 327.067 381.524 324.985 381.524C322.934 381.524 321.918 380.959 321.918 379.839C321.918 377.441 323.279 375.337 326.021 373.515C328.741 371.735 332.068 370.845 336.013 370.845C339.184 370.845 342.344 371.62 345.494 373.17C348.633 374.708 350.213 377.368 350.213 381.158V394.372C350.213 396.947 350.872 398.622 352.201 399.376C352.776 399.701 353.059 400.088 353.059 400.538C353.059 401.052 352.745 401.47 352.107 401.795C351.563 402.108 350.831 402.256 349.93 402.256ZM333.805 398.852C336.118 398.852 338.399 398.162 340.649 396.78C342.898 395.398 344.018 393.44 344.018 390.906V387.964C342.857 388.173 341.423 388.267 339.728 388.267C338.786 388.267 337.834 388.247 336.871 388.194C335.919 388.142 334.957 388.121 333.994 388.121C329.473 388.121 327.223 389.859 327.223 393.335C327.223 397.01 329.411 398.852 333.805 398.852ZM359.104 402.256C357.022 402.256 355.976 401.69 355.976 400.538V372.562C355.976 371.421 357.022 370.845 359.104 370.845C361.166 370.845 362.202 371.421 362.202 372.562V374.437C363.898 372.05 366.367 370.845 369.621 370.845C372.091 370.845 374.225 371.431 376.025 372.594C376.537 372.929 376.789 373.316 376.789 373.766C376.789 374.332 376.465 374.835 375.815 375.264C375.24 375.651 374.602 375.85 373.911 375.85C373.252 375.85 372.698 375.671 372.227 375.327C371.263 374.572 370.186 374.195 369.003 374.195C366.639 374.195 364.85 375.442 363.636 377.934C362.684 379.881 362.202 382.499 362.202 385.786V400.538C362.202 401.69 361.166 402.256 359.104 402.256ZM412.416 401.522H398.132C396.071 401.522 395.035 400.947 395.035 399.805V361.611C395.035 360.469 396.071 359.894 398.132 359.894H412.416C418.589 359.894 423.393 361.946 426.824 366.029C430.257 370.123 431.973 375.064 431.973 380.844C431.973 386.634 430.257 391.524 426.824 395.523C423.393 399.523 418.589 401.522 412.416 401.522ZM412.416 398.089C417.02 398.089 420.39 396.183 422.545 392.361C424.7 388.55 425.778 384.707 425.778 380.813C425.778 376.97 424.7 373.096 422.535 369.191C420.368 365.286 416.999 363.338 412.416 363.338H401.261V398.089H412.416ZM438.792 402.256C436.71 402.256 435.664 401.69 435.664 400.538V372.562C435.664 371.421 436.71 370.845 438.792 370.845C440.854 370.845 441.889 371.421 441.889 372.562V374.437C443.585 372.05 446.054 370.845 449.308 370.845C451.778 370.845 453.913 371.431 455.713 372.594C456.226 372.929 456.476 373.316 456.476 373.766C456.476 374.332 456.152 374.835 455.503 375.264C454.928 375.651 454.29 375.85 453.599 375.85C452.94 375.85 452.385 375.671 451.914 375.327C450.951 374.572 449.873 374.195 448.692 374.195C446.327 374.195 444.537 375.442 443.323 377.934C442.371 379.881 441.889 382.499 441.889 385.786V400.538C441.889 401.69 440.854 402.256 438.792 402.256ZM473.038 402.256C468.256 402.256 464.279 400.842 461.099 397.994C457.918 395.156 456.338 391.335 456.338 386.551C456.338 381.766 457.918 377.954 461.099 375.117C464.279 372.269 468.256 370.845 473.038 370.845C477.82 370.845 481.807 372.269 484.978 375.117C488.159 377.954 489.749 381.766 489.749 386.551C489.749 391.335 488.159 395.156 484.978 397.994C481.807 400.842 477.82 402.256 473.038 402.256ZM473.038 398.852C476.45 398.852 479.055 397.565 480.845 394.968C482.634 392.382 483.523 389.576 483.523 386.551C483.523 383.503 482.634 380.698 480.845 378.122C479.055 375.546 476.45 374.259 473.038 374.259C469.648 374.259 467.053 375.546 465.253 378.122C463.453 380.698 462.553 383.503 462.553 386.551C462.553 389.576 463.453 392.382 465.253 394.968C467.053 397.565 469.648 398.852 473.038 398.852ZM519.735 402.256C517.664 402.256 516.638 401.69 516.638 400.538V384.656C516.638 382.258 515.979 379.933 514.671 377.693C513.363 375.442 511.302 374.311 508.476 374.311C505.452 374.311 503.234 375.536 501.8 377.975C500.367 380.425 499.655 382.928 499.655 385.482V400.538C499.655 401.69 498.62 402.256 496.557 402.256C494.475 402.256 493.429 401.69 493.429 400.538V372.594C493.429 371.452 494.475 370.877 496.557 370.877C498.62 370.877 499.655 371.452 499.655 372.594V374.437C501.905 372.05 504.971 370.845 508.853 370.845C512.935 370.845 516.293 372.154 518.919 374.761C521.546 377.368 522.854 380.656 522.854 384.624V400.538C522.854 401.69 521.818 402.256 519.735 402.256ZM543.067 402.256C538.422 402.256 534.508 400.874 531.327 398.099C528.135 395.335 526.544 391.545 526.544 386.739C526.544 381.849 528.156 377.975 531.4 375.128C534.633 372.28 538.62 370.845 543.339 370.845C547.839 370.845 551.71 372.029 554.954 374.395C558.208 376.75 559.831 380.289 559.831 384.99C559.831 386.299 558.806 386.949 556.733 386.949H532.729C532.771 389.974 533.691 392.717 535.492 395.177C537.291 397.627 539.823 398.852 543.099 398.852C545.442 398.852 547.619 398.224 549.628 396.947C551.731 395.607 552.872 394.005 553.06 392.162C553.155 391.105 554.169 390.571 556.095 390.571C558.198 390.571 559.245 391.137 559.245 392.256C559.245 392.832 559.077 393.524 558.732 394.34C557.968 396.14 556.535 397.743 554.41 399.125C551.219 401.218 547.441 402.256 543.067 402.256ZM553.552 383.545C552.893 377.347 549.492 374.259 543.339 374.259C537.867 374.259 534.444 377.347 533.095 383.545H553.552Z" fill="#FFA061"/>
<path d="M239.278 437.901H240.505V426.444H239.278V437.901ZM257.651 426.444L252.66 434.939L247.621 426.444H246.61V437.901H247.787V428.785L252.346 436.445H252.926L257.485 428.735V437.901H258.663V426.444H257.651ZM273.437 437.901H274.731L269.426 426.444H268.216L262.911 437.901H264.187L265.58 434.841H272.045L273.437 437.901ZM266.027 433.859L268.812 427.704L271.598 433.859H266.027ZM286.986 436.036C286.091 436.674 285.063 436.92 283.952 436.92C281.101 436.92 278.995 434.89 278.995 432.172C278.995 429.439 281.101 427.426 283.969 427.426C285.329 427.426 286.489 427.819 287.467 428.768L288.23 427.999C287.202 426.902 285.676 426.346 283.919 426.346C280.372 426.346 277.785 428.818 277.785 432.172C277.785 435.529 280.372 438 283.903 438C285.511 438 287.069 437.509 288.164 436.543V432.172H286.986V436.036ZM295.18 436.854V432.598H301.181V431.567H295.18V427.491H301.911V426.444H293.953V437.901H302.16V436.854H295.18ZM315.857 426.444V435.741L308.381 426.444H307.369V437.901H308.596V428.604L316.057 437.901H317.068V426.444H315.857ZM326.372 438C329.34 438 330.699 436.559 330.699 434.873C330.699 430.7 323.554 432.598 323.554 429.456C323.554 428.31 324.499 427.377 326.621 427.377C327.649 427.377 328.809 427.688 329.804 428.326L330.218 427.36C329.29 426.722 327.931 426.346 326.621 426.346C323.67 426.346 322.343 427.802 322.343 429.488C322.343 433.728 329.489 431.796 329.489 434.939C329.489 436.069 328.544 436.969 326.372 436.969C324.847 436.969 323.371 436.379 322.543 435.577L322.062 436.51C322.924 437.394 324.631 438 326.372 438ZM348.707 437.901H350.001L344.695 426.444H343.485L338.18 437.901H339.457L340.85 434.841H347.314L348.707 437.901ZM341.297 433.859L344.082 427.704L346.868 433.859H341.297ZM361.012 423.481H359.437L357.166 425.511H358.326L361.012 423.481ZM355.475 436.854V432.598H361.476V431.567H355.475V427.491H362.206V426.444H354.248V437.901H362.455V436.854H355.475ZM376.931 437.901L374.096 433.973C375.788 433.433 376.749 432.172 376.749 430.373C376.749 427.917 374.959 426.444 372.008 426.444H367.665V437.901H368.891V434.268H372.008C372.339 434.268 372.638 434.251 372.936 434.219L375.589 437.901H376.931ZM371.975 433.237H368.891V427.491H371.975C374.295 427.491 375.522 428.539 375.522 430.373C375.522 432.172 374.295 433.237 371.975 433.237ZM383.202 436.854V432.598H389.204V431.567H383.202V427.491H389.933V426.444H381.975V437.901H390.182V436.854H383.202ZM404.062 437.901H405.355L400.05 426.444H398.84L393.535 437.901H394.811L396.204 434.841H402.669L404.062 437.901ZM396.652 433.859L399.436 427.704L402.222 433.859H396.652ZM412.802 438C415.77 438 417.13 436.559 417.13 434.873C417.13 430.7 409.984 432.598 409.984 429.456C409.984 428.31 410.929 427.377 413.051 427.377C414.079 427.377 415.239 427.688 416.234 428.326L416.649 427.36C415.721 426.722 414.361 426.346 413.051 426.346C410.1 426.346 408.774 427.802 408.774 429.488C408.774 433.728 415.92 431.796 415.92 434.939C415.92 436.069 414.974 436.969 412.802 436.969C411.278 436.969 409.802 436.379 408.973 435.577L408.492 436.51C409.354 437.394 411.062 438 412.802 438Z" fill="white"/>
</g>
<defs>
<clipPath id="clip0">
<rect width="465.5" height="245" fill="white" transform="translate(95 193)"/>
</clipPath>
</defs>
</svg>
