<svg width="122" height="123" viewBox="0 0 122 123" fill="none" xmlns="http://www.w3.org/2000/svg">
<g clip-path="url(#clip0)">
<path d="M81.8774 34.7508C82.1121 34.2499 82.427 33.7769 82.8299 33.3454L82.8453 33.3292L82.869 33.3036L82.8867 33.2855L82.9087 33.2626L82.9284 33.2425L82.949 33.2216L82.9713 33.2001L82.9953 33.1754L83.0139 33.1579L83.035 33.1373L83.053 33.1207L83.082 33.0931C83.5063 32.6948 83.9765 32.3808 84.4742 32.1471L77.6761 25.3206C77.3204 24.9636 76.8496 24.7842 76.3774 24.7842C75.907 24.7836 75.4357 24.9618 75.0799 25.3188C74.7242 25.6753 74.5461 26.1486 74.5461 26.6216C74.5461 27.0946 74.7242 27.5676 75.0799 27.9249L81.8774 34.7508ZM91.6463 39.3492C91.4133 39.8484 91.0996 40.3202 90.703 40.7464L90.6761 40.7755L90.6596 40.7932L90.6378 40.8156L90.6205 40.833L90.5961 40.8572L90.5753 40.8787L90.5538 40.9002L90.5344 40.92L90.511 40.9424L90.4927 40.9598L90.4687 40.9839L90.4513 40.9993L90.42 41.0284L90.4026 41.045C89.9907 41.4232 89.5341 41.7261 89.0501 41.9532L95.8479 48.7806C96.2036 49.1376 96.6746 49.3161 97.1468 49.3161C97.6181 49.3167 98.0886 49.1379 98.4443 48.7814C98.8001 48.4247 98.9782 47.9526 98.9782 47.4784C98.9782 47.0054 98.8001 46.5336 98.4443 46.1754L91.6463 39.3492ZM88.887 80.962C89.4385 81.2219 89.9559 81.5795 90.4119 82.0377L90.433 82.0592L90.4568 82.0839L90.4748 82.1022L90.4953 82.1235L90.5121 82.1415L90.5396 82.1709L90.5767 82.211L90.5961 82.2328C90.9655 82.6418 91.2601 83.0916 91.4837 83.5689L98.2812 76.7503C98.6373 76.3942 98.8148 75.9214 98.8148 75.4476C98.8148 74.9746 98.6373 74.5015 98.2821 74.1451C97.9255 73.7872 97.4548 73.6087 96.9834 73.6087C96.5124 73.6081 96.0405 73.7869 95.6851 74.1437L88.887 80.962ZM84.3111 90.7621C83.8123 90.5277 83.3435 90.2126 82.918 89.814L82.8896 89.787L82.8716 89.7701L82.8502 89.7495L82.8325 89.7317L82.8073 89.7073L82.7859 89.6864L82.765 89.6649L82.7445 89.6433L82.723 89.6218L82.7025 89.6L82.6819 89.5785L82.6616 89.5564L82.6419 89.5346L82.6213 89.5134C82.243 89.0988 81.9417 88.6403 81.7146 88.1548L74.9166 94.9732C74.5608 95.3299 74.383 95.8023 74.383 96.2754C74.383 96.7495 74.5608 97.2217 74.9166 97.5787C75.2726 97.9357 75.743 98.1153 76.2143 98.1153C76.6865 98.1153 77.1576 97.9374 77.5127 97.5804L84.3111 90.7621ZM43.1721 87.9673C42.945 88.4531 42.6437 88.9113 42.2654 89.3244L42.2497 89.3416L42.2211 89.3727L42.2048 89.3901L42.1811 89.4148L42.1637 89.4326L42.1414 89.4558L42.122 89.4765L42.1011 89.498L42.0797 89.5183L42.0545 89.5428L42.0365 89.5599L42.0154 89.5806L41.9971 89.5986L41.9685 89.6256C41.5432 90.0233 41.0736 90.3379 40.5759 90.5722L47.374 97.3981C47.7295 97.7554 48.2002 97.9339 48.6724 97.9339C49.144 97.9348 49.6145 97.7563 49.9751 97.3944C50.3291 97.0341 50.5041 96.5667 50.5041 96.098C50.5041 95.6238 50.3259 95.1517 49.9702 94.7947L43.1721 87.9673ZM33.4033 83.3701C33.6371 82.8698 33.9505 82.3994 34.3471 81.9723L34.3746 81.9438L34.3914 81.9255L34.412 81.904L34.4299 81.8862L34.454 81.8609L34.4748 81.8397L34.4963 81.8185L34.5163 81.7987L34.5392 81.7763L34.5577 81.7592L34.5823 81.7351L34.6046 81.7138C35.0281 81.3164 35.4995 80.9995 35.9998 80.7649L29.2017 73.939C28.8465 73.582 28.3746 73.4032 27.9033 73.4023C27.432 73.4014 26.9607 73.5802 26.6058 73.9372C26.2498 74.2934 26.0719 74.7664 26.0719 75.2394C26.0719 75.7124 26.2498 76.186 26.6049 76.5427L33.4033 83.3701ZM35.8358 42.0843C35.3448 41.8529 34.8807 41.5436 34.4633 41.154L34.441 41.1334L34.4189 41.1121L34.3978 41.0921L34.3761 41.0709L34.3543 41.0505L34.3329 41.0293L34.3118 41.0089L34.2909 40.9874L34.2663 40.9621L34.2489 40.9435L34.2283 40.9226L34.2115 40.9046L34.184 40.8752L34.1461 40.8354L34.1266 40.813C33.7587 40.4045 33.4636 39.9542 33.2405 39.4765L26.4424 46.2958C26.0867 46.6519 25.9088 47.1249 25.9088 47.5982C25.9088 48.0712 26.0867 48.5431 26.4424 48.9004C26.7984 49.2582 27.2689 49.437 27.7399 49.4379C28.2118 49.4379 28.6831 49.2594 29.0392 48.903L35.8358 42.0843ZM40.4126 32.2834C40.9105 32.5183 41.3804 32.8323 41.8054 33.2312L41.8338 33.2591L41.8526 33.2757L41.8734 33.2972L41.8914 33.314L41.9166 33.3393L41.9378 33.3597L41.9592 33.3809L41.9763 33.3992L42.0044 33.4283L42.0212 33.4463L42.042 33.4675L42.0623 33.4888L42.0794 33.5082C42.4688 33.9304 42.7778 34.3973 43.0093 34.8909L49.8071 28.0729C50.162 27.7156 50.3398 27.2431 50.3398 26.7701C50.3398 26.2962 50.162 25.8241 49.8071 25.4671C49.4511 25.1101 48.9797 24.9307 48.5093 24.9307C48.0371 24.9307 47.5667 25.1086 47.2109 25.4656L40.4126 32.2834ZM56.1956 55.0035C57.9447 53.251 60.2349 52.3748 62.5255 52.3768C64.8158 52.378 67.1063 53.2572 68.8546 55.0108C70.602 56.7668 71.4759 59.0652 71.4759 61.3649C71.4759 63.6628 70.602 65.9615 68.8546 67.7149C67.1063 69.4682 64.8158 70.3439 62.5255 70.3419C60.2349 70.3401 57.9447 69.4624 56.1964 67.7064C54.4485 65.9516 53.5751 63.6523 53.5751 61.3535C53.5751 59.0545 54.4485 56.7566 56.1956 55.0035ZM84.8488 38.8718L84.8722 38.8971L84.885 38.9102L84.8965 38.9212L84.9084 38.9337L84.9209 38.9462L84.9704 38.9928C85.4748 39.4626 86.1196 39.6981 86.7621 39.6981C87.4067 39.6989 88.0498 39.4646 88.5553 38.9942L88.5825 38.9695L88.6092 38.9428L88.628 38.9244L88.6541 38.8977L88.6984 38.8509C89.1674 38.3439 89.4012 37.6982 89.4012 37.0525C89.4012 36.3745 89.1439 35.6962 88.628 35.1785C88.1132 34.6621 87.4377 34.4031 86.7621 34.4022C86.108 34.4022 85.4539 34.6438 84.9426 35.1311L84.916 35.1575L84.8965 35.1764L84.8699 35.2032L84.8259 35.2491C84.3577 35.7564 84.124 36.4021 84.124 37.0487C84.124 37.7043 84.365 38.3619 84.8488 38.8718ZM84.7862 83.9361L84.7587 83.9632L84.7462 83.9745L84.7332 83.9882C84.2181 84.5045 83.9609 85.1825 83.9609 85.8604C83.9609 86.5061 84.1946 87.1521 84.6628 87.66L84.688 87.6874L84.7138 87.7141L84.7332 87.7327L84.7598 87.7597C85.2731 88.2607 85.936 88.5098 86.599 88.5107C87.2743 88.5107 87.9499 88.2519 88.4646 87.7365C88.9806 87.2187 89.2372 86.5416 89.2372 85.8636C89.2372 85.2072 88.9962 84.5499 88.5098 84.0367L88.484 84.01L88.4646 83.9902C87.9499 83.473 87.2743 83.2143 86.599 83.2137C85.9467 83.2137 85.2937 83.4535 84.7862 83.9361ZM40.2251 83.871L40.1898 83.8341L40.1779 83.8216L40.166 83.8094L40.1536 83.7969L40.1417 83.7844L40.1292 83.773L40.1171 83.7608L40.1052 83.7489L40.0806 83.7259C39.5748 83.2553 38.9314 83.0209 38.2877 83.0204C37.6249 83.0204 36.9621 83.2689 36.4488 83.7684L36.4221 83.7948L36.3955 83.8219L36.3517 83.8681C35.8836 84.3751 35.6498 85.0214 35.6498 85.6671C35.6498 86.3451 35.9062 87.023 36.4221 87.5394C36.9369 88.0572 37.6124 88.3165 38.2877 88.3174C38.9314 88.3174 39.5748 88.0827 40.0814 87.6132L40.1081 87.5871L40.1339 87.562L40.1536 87.5423L40.1802 87.5155L40.1991 87.4958C40.6852 86.9832 40.9262 86.3268 40.9262 85.67C40.9262 85.0243 40.6924 84.3786 40.2251 83.871ZM39.9412 39.1056L39.9673 39.0808L39.9792 39.0689L39.9905 39.0579L40.0038 39.0448L40.0157 39.0326L40.0403 39.0064C40.5229 38.4942 40.7628 37.8403 40.7628 37.1853C40.7628 36.5286 40.5221 35.8721 40.0354 35.3587L40.0096 35.3317L39.9905 35.3119L39.9638 35.2866L39.9444 35.2674L39.9181 35.2418C39.412 34.7714 38.7683 34.5362 38.1246 34.5362C37.4491 34.5354 36.7735 34.7935 36.259 35.3107C35.7431 35.8259 35.4856 36.5042 35.4856 37.183C35.4856 37.8476 35.7341 38.5134 36.2399 39.0367L36.259 39.0556L36.2851 39.0817C36.799 39.5823 37.4615 39.8324 38.1246 39.8324C38.7787 39.8327 39.4331 39.5902 39.9412 39.1056ZM40.4047 80.6911C40.9447 80.9231 41.454 81.2466 41.9105 81.6627L41.9343 81.6851L41.9592 81.7071L41.9829 81.7295L42.0035 81.7493L42.0305 81.7746L42.0525 81.7964L42.0768 81.8208L42.1011 81.8444L42.1237 81.8676L42.1481 81.8926L42.1695 81.9156L42.1953 81.9423L42.2147 81.963L42.2379 81.9865L42.2596 82.011L42.2813 82.0345C42.6959 82.4927 43.0183 83.0049 43.2483 83.5469L56.0267 76.1159C58.0895 74.9173 60.3062 74.3181 62.5255 74.3198C64.7439 74.3216 66.9606 74.9225 69.0229 76.1241L81.7309 83.5288C81.9887 82.9884 82.3392 82.4811 82.7859 82.0328L82.812 82.0072L82.8369 81.9825L82.865 81.9563L82.8887 81.9333L82.9174 81.9054C83.4458 81.4103 84.0501 81.0399 84.6903 80.7981L77.2338 67.8896C76.0374 65.8194 75.4389 63.5939 75.4389 61.3672C75.4389 59.14 76.0374 56.9153 77.2338 54.8471L84.6445 42.0273C84.0863 41.7878 83.5599 41.4488 83.0909 41.011L83.0672 40.9892L83.0466 40.9697L83.0194 40.9435L82.9979 40.9223L82.9733 40.8973L82.949 40.874L82.9264 40.8511L82.9021 40.8261L82.8806 40.804L82.8548 40.7772L82.8354 40.756L82.812 40.7313L82.7902 40.7077L82.7691 40.6836L82.7465 40.6589L82.7245 40.6342C82.332 40.1894 82.0237 39.6949 81.8013 39.1713L69.0229 46.6025C66.9606 47.8014 64.7439 48.4 62.5255 48.3986C60.3062 48.3977 58.0895 47.7962 56.0267 46.5943L43.1689 39.1015C42.9351 39.7228 42.5835 40.3103 42.113 40.8275L42.0896 40.8548L42.0649 40.8813L42.0371 40.9104L42.0139 40.9345L41.9879 40.9618L41.9632 40.9874L41.9378 41.013L41.9175 41.0336L41.892 41.0581L41.8755 41.0743L41.854 41.0941L41.8352 41.1127L41.8123 41.1345L41.7891 41.1563L41.7697 41.1738L41.7474 41.1935C41.35 41.5575 40.9105 41.85 40.4467 42.0707L47.8164 54.8291C49.0128 56.8993 49.6113 59.1248 49.6113 61.3506C49.6113 63.5782 49.0128 65.8025 47.8164 67.8713L40.4047 80.6911Z" fill="white"/>
<path d="M24.3775 21.1165C24.1964 21.3069 24.0429 21.3784 23.9157 21.3325L22.0745 20.6656L20.2185 22.6192L21.0044 24.472C21.0441 24.561 21.0018 24.6697 20.8789 24.7994C20.7173 24.9695 20.5953 25.0142 20.5122 24.9346C20.5058 24.9285 20.4983 24.9171 20.4905 24.9014L18.0742 19.191C18.0223 19.0739 18.0936 18.9134 18.2857 18.711C18.4543 18.5334 18.6017 18.4662 18.7269 18.5101L24.4783 20.5903C24.4986 20.599 24.5145 20.6083 24.527 20.6205C24.6402 20.7287 24.5898 20.8929 24.3775 21.1165ZM21.5756 20.4882L18.9102 19.5233L20.0154 22.1305L21.5756 20.4882ZM26.9285 18.9244C26.6979 19.1064 26.533 19.1349 26.4331 19.007L24.0009 15.9012C23.9018 15.7747 23.9676 15.6192 24.1979 15.4375C24.4262 15.2575 24.591 15.2311 24.6901 15.3578L24.8531 15.5657C24.8332 15.1529 25.0018 14.8037 25.3621 14.5197C25.6353 14.3039 25.9227 14.1827 26.2228 14.1548C26.3088 14.1472 26.3702 14.1682 26.4093 14.2182C26.4586 14.281 26.4664 14.365 26.4317 14.4694C26.4018 14.5627 26.3482 14.6403 26.272 14.7008C26.199 14.7581 26.1223 14.7868 26.04 14.7897C25.8679 14.79 25.7158 14.8421 25.5849 14.9453C25.3233 15.1517 25.2335 15.4462 25.3158 15.8291C25.3795 16.1282 25.5539 16.4608 25.8395 16.8257L27.122 18.4636C27.2222 18.5915 27.1567 18.7448 26.9285 18.9244ZM31.3807 10.2774C31.1353 10.4353 31.0568 10.5806 31.144 10.7176L31.2856 10.9391C30.8268 10.8373 30.3624 10.9376 29.8937 11.2391C28.6535 12.0369 28.4311 13.0579 29.226 14.3025C30.0209 15.5471 31.0383 15.7706 32.2784 14.9729C32.7448 14.6729 33.0287 14.2903 33.1307 13.8277L34.155 15.432C34.2419 15.5677 34.407 15.5578 34.6527 15.4C34.8995 15.2412 34.9797 15.093 34.8931 14.9575L31.8818 10.2428C31.7946 10.1059 31.6278 10.1184 31.3807 10.2774ZM30.1544 11.6473C30.5365 11.4016 30.9224 11.3816 31.312 11.5857C31.7011 11.7921 32 12.0581 32.2083 12.384C32.416 12.7087 32.5316 13.0928 32.5559 13.5335C32.5791 13.9751 32.3989 14.3176 32.0168 14.5633C31.6362 14.8084 31.2509 14.8296 30.8607 14.624C30.4693 14.4194 30.1701 14.1536 29.9626 13.8286C29.7544 13.5027 29.6385 13.1187 29.6168 12.6762C29.5945 12.236 29.7738 11.8921 30.1544 11.6473ZM34.9626 8.29961C35.2222 8.16617 35.3867 8.17111 35.4606 8.31589L36.4794 10.312C36.633 10.6132 36.8647 10.8629 37.1724 11.0603C37.4806 11.2589 37.8114 11.2682 38.1654 11.0862C38.5443 10.8914 38.7436 10.5946 38.7668 10.1957C38.7894 9.79568 38.7178 9.43518 38.5542 9.11422L37.5886 7.22219C37.5148 7.07741 37.6083 6.9396 37.8665 6.80703C38.1275 6.67272 38.2949 6.6765 38.3688 6.82128L40.1608 10.3329C40.2338 10.4763 40.1399 10.6161 39.8789 10.7504C39.6205 10.883 39.4539 10.8775 39.3806 10.7338L39.2625 10.5024C39.1338 10.9472 38.8282 11.2952 38.3404 11.5461C37.8291 11.8089 37.3242 11.8607 36.8279 11.7023C36.3317 11.5438 35.9568 11.2147 35.7025 10.7161L34.6819 8.71593C34.6081 8.57144 34.7016 8.43364 34.9626 8.29961ZM41.4287 4.96006C41.1521 5.06966 40.9615 4.98768 40.854 4.71411C40.7448 4.43617 40.8279 4.2443 41.1046 4.13498C41.3775 4.02683 41.5669 4.11085 41.6761 4.3885C41.7839 4.66236 41.7016 4.8522 41.4287 4.96006ZM43.1894 9.44041C42.9154 9.54885 42.7506 9.52821 42.6909 9.37704L41.2471 5.70257C41.1883 5.55256 41.294 5.42318 41.5684 5.31474C41.8384 5.20805 42.0023 5.23043 42.0611 5.38016L43.5049 9.05491C43.5646 9.20609 43.4594 9.33372 43.1894 9.44041ZM48.0052 7.89434C47.0698 8.15483 46.4954 7.9051 46.2801 7.14456L45.5301 4.49374L45.0652 4.62631C44.7862 4.70568 44.6243 4.66904 44.5799 4.51264C44.5359 4.35739 44.6541 4.23935 44.9334 4.1597L45.398 4.02742L45.0151 2.67351C44.971 2.51856 45.0907 2.39994 45.3728 2.31941C45.6547 2.23917 45.8186 2.27696 45.8624 2.43192L46.2454 3.78582L46.9426 3.58697C47.2245 3.50673 47.3885 3.54452 47.4322 3.69948C47.4765 3.85589 47.3566 3.97305 47.0744 4.05358L46.3775 4.25215L47.1275 6.90297C47.2564 7.35795 47.5064 7.53268 47.8774 7.42686C47.9539 7.40505 48.0272 7.37656 48.0921 7.34109C48.1584 7.30533 48.2274 7.27801 48.2998 7.25736C48.5901 7.17451 48.759 7.21405 48.8044 7.37482C48.8352 7.48268 48.7401 7.59141 48.5197 7.69868C48.3456 7.78212 48.1738 7.84637 48.0052 7.89434ZM53.1046 6.79686C52.4606 6.91257 51.8841 6.8175 51.3745 6.51078C50.8641 6.20611 50.5498 5.71856 50.431 5.05077C50.3099 4.37105 50.4377 3.79251 50.8166 3.3163C51.1944 2.8401 51.7115 2.54152 52.3653 2.42436C52.9887 2.31272 53.5544 2.38104 54.0628 2.62932C54.5718 2.87586 54.8841 3.32735 55.0006 3.9809C55.033 4.16289 54.9067 4.2786 54.6196 4.33006L51.2931 4.92634C51.3737 5.34556 51.5692 5.70431 51.8798 6.00143C52.1894 6.29739 52.571 6.40467 53.0246 6.32327C53.3496 6.26512 53.6356 6.12354 53.8824 5.89619C54.1408 5.6578 54.2592 5.4069 54.2395 5.14583C54.2265 4.99669 54.354 4.89726 54.6208 4.84929C54.9122 4.79696 55.0712 4.84958 55.099 5.00541C55.1132 5.08565 55.1072 5.18566 55.0793 5.30777C55.0182 5.57698 54.8592 5.83543 54.599 6.08022C54.2086 6.4506 53.7106 6.68842 53.1046 6.79686ZM54.0947 3.93613C53.8499 3.09099 53.3024 2.74619 52.4496 2.89882C51.6912 3.03488 51.2934 3.54917 51.2598 4.44431L54.0947 3.93613ZM59.9829 5.99388C59.0145 6.06191 58.5014 5.70228 58.4415 4.91354L58.2335 2.1662L57.7517 2.20283C57.4623 2.22492 57.3108 2.15631 57.2986 1.99438C57.2862 1.83361 57.4255 1.74145 57.7149 1.71935L58.1967 1.68272L58.0904 0.279396C58.0782 0.118626 58.219 0.026466 58.5113 0.00408025C58.8036 -0.0183055 58.9565 0.0514683 58.9687 0.212239L59.075 1.61557L59.7978 1.56033C60.0901 1.53823 60.243 1.60801 60.2552 1.76878C60.2676 1.93071 60.1266 2.02171 59.8343 2.0438L59.1118 2.09904L59.3198 4.84668C59.3557 5.31823 59.566 5.53947 59.9507 5.51011C60.0301 5.504 60.1074 5.49092 60.1781 5.46912C60.2503 5.44731 60.3233 5.43423 60.398 5.42842C60.6993 5.40545 60.8569 5.47813 60.8693 5.64472C60.878 5.75665 60.7633 5.84386 60.5257 5.90521C60.3386 5.95201 60.1578 5.9805 59.9829 5.99388ZM67.0643 6.11714C66.9362 6.11365 66.8308 6.08749 66.7526 6.03661C66.5538 5.91189 66.431 5.7549 66.3841 5.56302C66.1946 5.77554 65.9438 5.91247 65.6326 5.97556C65.3218 6.03719 65.0425 6.06568 64.7952 6.05929C64.4018 6.0494 64.0052 5.94474 63.6051 5.74531C63.2062 5.54587 63.0127 5.21561 63.0246 4.75452C63.0376 4.22831 63.2448 3.90095 63.6445 3.76896C64.0457 3.63755 64.4583 3.57679 64.8838 3.58755C64.9751 3.59017 65.0886 3.59598 65.2224 3.60499C65.3563 3.61459 65.4811 3.62069 65.599 3.6236C65.9246 3.63174 66.1567 3.60092 66.2969 3.52882L66.3073 3.11803C66.3238 2.46797 65.9565 2.1348 65.2054 2.11561C64.9301 2.10863 64.6825 2.17027 64.4626 2.30371C64.208 2.46012 64.0779 2.6488 64.0724 2.87498C64.0683 3.03314 63.9206 3.10931 63.6274 3.10175C63.3389 3.09448 63.1981 3.01104 63.2022 2.85289C63.2106 2.51449 63.4096 2.22231 63.8018 1.9749C64.1909 1.73331 64.6625 1.61964 65.2175 1.63388C65.6636 1.64522 66.1057 1.76587 66.5434 1.99583C66.9797 2.22434 67.1926 2.60519 67.1793 3.14042L67.1321 5.00512C67.1228 5.36882 67.2097 5.6075 67.3939 5.71885C67.4739 5.76653 67.5124 5.82235 67.5107 5.88573C67.5089 5.95812 67.4632 6.01626 67.3722 6.05987C67.2946 6.10232 67.1909 6.12034 67.0643 6.11714ZM64.807 5.57901C65.1326 5.58744 65.4559 5.4979 65.7775 5.31096C66.099 5.12403 66.2636 4.85162 66.2726 4.49403L66.283 4.07858C66.119 4.10417 65.9168 4.11231 65.6784 4.1062C65.5457 4.10271 65.4119 4.09661 65.2766 4.08585C65.1428 4.0748 65.0072 4.06841 64.8719 4.06521C64.2358 4.04893 63.9131 4.28616 63.9006 4.7769C63.8876 5.29556 64.1888 5.56331 64.807 5.57901ZM70.3473 6.51253C70.0585 6.46078 69.9275 6.35612 69.9562 6.19622L70.648 2.30749C70.6764 2.14905 70.8357 2.09497 71.1239 2.14672C71.4099 2.19789 71.5391 2.30371 71.511 2.46216L71.4646 2.72294C71.7584 2.43308 72.1303 2.32697 72.5814 2.40779C72.9238 2.46913 73.205 2.60374 73.4255 2.80986C73.4884 2.86946 73.5136 2.92935 73.5026 2.99186C73.4884 3.07064 73.431 3.13228 73.3305 3.17588C73.2413 3.21542 73.148 3.22705 73.0521 3.21019C72.9608 3.19362 72.8884 3.15524 72.8316 3.09535C72.7169 2.96685 72.5767 2.88749 72.413 2.85841C72.0854 2.7994 71.8064 2.92819 71.5767 3.24449C71.3965 3.49132 71.265 3.84339 71.1839 4.30012L70.8189 6.35089C70.7905 6.51078 70.6329 6.5637 70.3473 6.51253ZM79.6625 8.60138L77.758 7.95481C77.4831 7.86178 77.3707 7.73764 77.4223 7.58501L79.1442 2.47669C79.1958 2.32406 79.3597 2.29383 79.6346 2.38715L81.5393 3.03372C82.3626 3.3134 82.9104 3.8053 83.1839 4.50682C83.4571 5.2095 83.4631 5.94823 83.2027 6.72127C82.9417 7.49547 82.4924 8.07197 81.8545 8.45137C81.2163 8.83106 80.4857 8.88106 79.6625 8.60138ZM79.8174 8.14233C80.4313 8.35078 80.9666 8.24815 81.4264 7.83474C81.8855 7.42279 82.2024 6.95734 82.378 6.43665C82.5512 5.92265 82.5822 5.35574 82.4695 4.73533C82.3565 4.11492 81.9953 3.7021 81.3841 3.49452L79.8965 2.98953L78.3299 7.63734L79.8174 8.14233ZM84.9849 10.7917C84.7178 10.6705 84.6164 10.5367 84.683 10.3888L86.3047 6.7893C86.3707 6.64277 86.5385 6.6294 86.8056 6.75063C87.07 6.8707 87.1694 7.00502 87.1033 7.15183L86.9947 7.39313C87.3504 7.18468 87.7369 7.17335 88.1543 7.36261C88.471 7.50652 88.7108 7.70624 88.8745 7.96034C88.9208 8.0336 88.9304 8.09785 88.9043 8.1557C88.8716 8.22838 88.8009 8.27432 88.6929 8.29176C88.5967 8.30804 88.5031 8.29641 88.4145 8.25629C88.3299 8.21792 88.2691 8.16268 88.2288 8.09087C88.1491 7.93795 88.0327 7.8266 87.8809 7.75799C87.5776 7.62019 87.276 7.6763 86.9756 7.92632C86.7407 8.1214 86.5275 8.43015 86.3368 8.85315L85.4817 10.751C85.4148 10.8993 85.2494 10.9118 84.9849 10.7917ZM91.0214 13.9283C90.4376 13.5917 90.0515 13.1387 89.8632 12.566C89.674 11.9947 89.7491 11.4156 90.0848 10.8301C90.4203 10.2443 90.8806 9.889 91.4678 9.76603C92.0555 9.6413 92.6407 9.74713 93.2241 10.0838C93.8079 10.4207 94.1943 10.8757 94.3817 11.4476C94.5709 12.0188 94.4976 12.5974 94.1621 13.1829C93.8264 13.7687 93.3643 14.1243 92.7772 14.2475C92.1905 14.3731 91.6048 14.2653 91.0214 13.9283ZM91.2601 13.512C91.6763 13.7521 92.0845 13.778 92.4851 13.5861C92.8846 13.3957 93.1899 13.1149 93.4023 12.7445C93.6161 12.3718 93.7041 11.9656 93.6665 11.5243C93.6288 11.083 93.4011 10.742 92.9849 10.5016C92.5712 10.2629 92.1642 10.2379 91.7638 10.4263C91.3635 10.6147 91.057 10.8949 90.8432 11.2676C90.6311 11.6383 90.544 12.045 90.5822 12.4884C90.6199 12.9329 90.8464 13.2733 91.2601 13.512ZM97.9993 18.9247C97.7699 18.7442 97.7056 18.5918 97.8058 18.4639L99.1865 16.7007C99.395 16.4344 99.524 16.1189 99.5741 15.7558C99.6248 15.3918 99.495 15.0863 99.1824 14.8397C98.8475 14.5758 98.4956 14.5182 98.1248 14.6639C97.7531 14.8107 97.4567 15.0264 97.2348 15.3101L95.926 16.9815C95.8258 17.1094 95.6621 17.0815 95.4339 16.9016C95.2036 16.7199 95.1369 16.5658 95.2369 16.4379L97.6662 13.3358C97.7653 13.2091 97.9313 13.2364 98.1616 13.4181C98.3898 13.5981 98.4544 13.7524 98.3554 13.8792L98.1952 14.0839C98.6514 14.0153 99.0955 14.149 99.5251 14.488C99.977 14.8441 100.235 15.2828 100.299 15.8015C100.363 16.3201 100.222 16.7992 99.8771 17.2397L98.4938 19.0064C98.3936 19.1343 98.2299 19.1067 97.9993 18.9247ZM101.885 22.5439C101.434 22.0689 101.195 21.534 101.168 20.9386C101.14 20.3429 101.371 19.8108 101.86 19.3428C102.358 18.8663 102.909 18.6538 103.514 18.7078C104.118 18.761 104.652 19.0291 105.11 19.5114C105.547 19.9716 105.803 20.4827 105.877 21.045C105.953 21.6072 105.75 22.1177 105.272 22.5759C105.138 22.7033 104.973 22.6617 104.771 22.4498L102.44 19.9955C102.136 20.2946 101.946 20.656 101.87 21.0796C101.795 21.5023 101.917 21.8805 102.235 22.2154C102.463 22.4553 102.738 22.6166 103.063 22.6977C103.404 22.7821 103.678 22.7425 103.884 22.5823C104 22.489 104.154 22.5408 104.341 22.7376C104.545 22.9527 104.589 23.1146 104.475 23.224C104.416 23.2801 104.33 23.3301 104.213 23.3743C103.955 23.4719 103.653 23.4812 103.306 23.3987C102.783 23.2763 102.31 22.9911 101.885 22.5439ZM104.809 21.793C105.376 21.1217 105.36 20.4731 104.763 19.844C104.231 19.2843 103.584 19.2355 102.822 19.7012L104.809 21.793ZM108.292 24.4921C108.567 24.8433 108.531 25.1579 108.18 25.4346C107.829 25.7114 107.516 25.6724 107.241 25.3215C106.965 24.9695 107.002 24.6549 107.352 24.3781C107.704 24.1014 108.017 24.14 108.292 24.4921ZM108.924 31.336L109.238 31.8274L113.868 28.8492L113.554 28.3579L108.924 31.336ZM117.047 37.7509C116.74 37.0682 116.189 36.6691 115.58 36.617C116.006 36.1467 116.051 35.5382 115.769 34.9131C115.484 34.2808 114.999 33.9124 114.429 33.8514L115.116 33.5394L114.896 33.051L111.13 34.7596L111.36 35.2698L113.336 34.3732C114.195 33.9834 114.919 34.2517 115.266 35.0204C115.576 35.71 115.35 36.2975 114.555 36.658L112.422 37.6261L112.651 38.1361L114.627 37.2395C115.486 36.8496 116.207 37.111 116.557 37.8866C116.864 38.5693 116.637 39.1568 115.843 39.5173L113.71 40.4851L113.94 40.9954L116.123 40.0046C117.204 39.5141 117.462 38.6701 117.047 37.7509ZM119.512 44.3564C119.334 43.727 118.97 43.1912 118.516 42.8862L118.184 43.2432C118.564 43.4874 118.883 43.9212 119.029 44.437C119.239 45.18 118.978 45.6725 118.298 45.8664L118.056 45.9353L117.697 44.6687C117.374 43.5235 116.748 43.2755 116.136 43.4499C115.448 43.6459 115.136 44.3332 115.392 45.2356C115.578 45.8955 115.961 46.2947 116.438 46.4211L115.818 46.5976L115.964 47.1134L118.427 46.4113C119.455 46.1182 119.804 45.3879 119.512 44.3564ZM115.839 45.1984C115.658 44.5614 115.84 44.1079 116.301 43.9767C116.709 43.8602 117.082 44.0244 117.301 44.798L117.655 46.0493L117.006 46.2345C116.424 46.1708 116.01 45.8054 115.839 45.1984ZM121.345 52.8712L120.564 53.0113C121.036 52.5743 121.21 51.9344 121.088 51.2515C120.881 50.0872 119.927 49.3452 118.759 49.5546C117.592 49.7639 116.937 50.7942 117.144 51.9583C117.263 52.6258 117.637 53.1596 118.216 53.4081L117.698 53.5009C116.693 53.6811 116.137 53.2921 115.953 52.2601C115.841 51.6312 115.945 51.0041 116.224 50.5535L115.757 50.3491C115.43 50.848 115.336 51.6178 115.469 52.363C115.709 53.7134 116.466 54.2905 117.866 54.0396L121.439 53.3991L121.345 52.8712ZM117.641 51.9254C117.481 51.0251 117.977 50.2715 118.859 50.1133C119.741 49.9552 120.458 50.4913 120.619 51.3917C120.779 52.292 120.292 53.052 119.41 53.2101C118.528 53.3683 117.801 52.8258 117.641 51.9254ZM119.881 61.1001C121.122 61.0687 121.957 60.2035 121.927 59.0371C121.898 57.8707 121.005 57.0338 119.779 57.0649C118.554 57.096 117.697 58.001 117.73 59.2936C117.746 59.9477 117.996 60.5172 118.445 60.8765L118.799 60.5518C118.429 60.2457 118.237 59.8012 118.225 59.2968C118.202 58.3903 118.758 57.7138 119.621 57.6289L119.708 61.0966C119.771 61.0952 119.834 61.1013 119.881 61.1001ZM121.448 59.0493C121.469 59.861 120.918 60.4666 120.111 60.5579L120.037 57.6181C120.848 57.6687 121.428 58.2455 121.448 59.0493ZM121.744 66.5006C121.799 65.7851 121.551 65.2048 121.072 64.8679L121.832 64.9258L121.873 64.3911L117.752 64.0768L117.71 64.635L119.872 64.7999C120.812 64.8717 121.318 65.4717 121.251 66.3599C121.191 67.1463 120.71 67.5682 119.841 67.5016L117.506 67.3237L117.464 67.8818L119.853 68.0641C121.036 68.1543 121.668 67.5068 121.744 66.5006ZM116.707 72.25C116.518 73.3134 116.864 74.0161 117.567 74.142C119.128 74.422 118.772 71.627 119.871 71.8241C120.258 71.8933 120.486 72.2706 120.355 73.0079C120.28 73.4271 120.104 73.8359 119.793 74.1487L120.191 74.4682C120.483 74.1682 120.733 73.6205 120.827 73.0925C121.012 72.0526 120.619 71.3894 119.954 71.2702C118.345 70.9818 118.708 73.778 117.65 73.5885C117.248 73.5164 117.042 73.1509 117.18 72.3747C117.282 71.8005 117.581 71.2854 117.894 71.0051L117.505 70.6792C117.16 70.9618 116.827 71.5746 116.707 72.25ZM113.596 82.6349L113.371 83.2071L119.409 82.8847L119.62 82.3495L115.426 77.9778L115.204 78.5424L116.329 79.6995L115.205 82.5599L113.596 82.6349ZM116.689 80.0711L118.953 82.3907L115.721 82.5355L116.689 80.0711ZM116.123 90.8264L116.463 90.1598L116.087 88.7527L115.836 89.244L116.123 90.8264ZM112.535 89.7621C113.64 90.3298 114.785 89.9705 115.315 88.932C115.845 87.8936 115.46 86.7298 114.369 86.169C113.278 85.6085 112.094 85.9919 111.506 87.1426C111.209 87.7252 111.157 88.3454 111.381 88.8762L111.846 88.7608C111.667 88.3148 111.71 87.8322 111.94 87.3831C112.352 86.576 113.163 86.2489 113.961 86.5882L112.385 89.676C112.441 89.7048 112.493 89.7402 112.535 89.7621ZM114.889 88.7128C114.52 89.4356 113.748 89.703 112.996 89.3963L114.331 86.7786C115.019 87.2121 115.254 87.9971 114.889 88.7128ZM111.591 93.5647L112.272 94.0029L112.561 93.5514L109.082 91.3137L108.781 91.7849L110.553 92.9251C111.373 93.4525 111.552 94.1953 111.086 94.9253C111.065 94.9585 111.033 94.9942 111.007 95.034L111.464 95.3274C111.875 94.6837 111.914 94.0816 111.591 93.5647ZM105.727 99.4176C106.703 100.187 107.896 100.055 108.614 99.1376C109.332 98.2201 109.176 97.0037 108.213 96.2438C107.249 95.4838 106.013 95.6324 105.217 96.649C104.814 97.1636 104.645 97.7625 104.763 98.3265L105.242 98.3027C105.151 97.8305 105.286 97.3651 105.597 96.9685C106.155 96.2554 107.014 96.0905 107.732 96.5766L105.596 99.3045C105.645 99.3432 105.69 99.3885 105.727 99.4176ZM108.237 98.8405C107.737 99.4789 106.929 99.5932 106.249 99.1472L108.059 96.8348C108.652 97.3924 108.733 98.2082 108.237 98.8405ZM103.978 104.208C104.451 103.757 104.753 103.184 104.81 102.639L104.341 102.511C104.303 102.962 104.069 103.447 103.682 103.817C103.125 104.35 102.569 104.347 102.082 103.834L101.908 103.651L102.858 102.743C103.716 101.921 103.643 101.25 103.204 100.788C102.711 100.269 101.96 100.312 101.283 100.96C100.788 101.433 100.615 101.959 100.726 102.441L100.281 101.973L99.8945 102.343L101.662 104.203C102.399 104.979 103.205 104.948 103.978 104.208ZM101.524 101.339C102.002 100.882 102.486 100.832 102.817 101.181C103.11 101.488 103.139 101.896 102.559 102.451L101.621 103.349L101.155 102.858C100.94 102.312 101.069 101.774 101.524 101.339ZM96.4906 105.198C95.6445 105.865 95.4368 106.621 95.8785 107.185C96.8583 108.436 98.4452 106.111 99.1352 106.993C99.378 107.303 99.2983 107.737 98.7114 108.2C98.3777 108.462 97.975 108.65 97.5355 108.675L97.6207 109.18C98.0382 109.152 98.5874 108.909 99.0074 108.577C99.8351 107.925 99.9817 107.167 99.5642 106.635C98.5544 105.345 96.9715 107.675 96.3073 106.826C96.055 106.504 96.1433 106.093 96.7609 105.607C97.218 105.246 97.7826 105.061 98.2024 105.061L98.1283 104.558C97.683 104.538 97.0283 104.774 96.4906 105.198ZM91.0193 109.08L90.5153 109.371L93.2569 114.156L93.7606 113.865L91.0193 109.08ZM84.5051 117.021C85.185 116.712 85.5828 116.16 85.6346 115.548C86.1033 115.976 86.71 116.021 87.3328 115.738C87.9626 115.452 88.3296 114.965 88.3904 114.393L88.7013 115.082L89.1879 114.861L87.4854 111.083L86.9773 111.313L87.8704 113.296C88.2589 114.158 87.9915 114.885 87.2256 115.233C86.5385 115.544 85.953 115.317 85.5938 114.52L84.6294 112.379L84.121 112.609L85.0144 114.592C85.4029 115.454 85.1427 116.178 84.3696 116.529C83.6894 116.837 83.1042 116.61 82.7447 115.812L81.7804 113.672L81.2722 113.902L82.2592 116.093C82.7479 117.178 83.5889 117.437 84.5051 117.021ZM76.4035 115.184C75.2395 115.516 74.626 116.608 74.9608 117.791C75.2957 118.975 76.3878 119.573 77.5515 119.241C78.7152 118.91 79.3386 117.822 79.0037 116.639C78.6691 115.456 77.5671 114.852 76.4035 115.184ZM76.5385 115.662C77.3849 115.421 78.1958 115.862 78.4597 116.794C78.7236 117.727 78.265 118.53 77.4185 118.771C76.5721 119.012 75.7688 118.569 75.5049 117.636C75.241 116.703 75.6923 115.903 76.5385 115.662ZM69.8806 120.714C70.5353 120.631 71.0608 120.277 71.3363 119.702L71.6491 122.173L72.2024 122.103L71.4681 116.299L70.9382 116.367L71.0411 117.18C70.6355 116.668 70.0292 116.443 69.3511 116.529C68.1822 116.678 67.4171 117.642 67.5744 118.886C67.7317 120.129 68.7117 120.863 69.8806 120.714ZM69.4524 117.017C70.3253 116.906 71.0611 117.464 71.1827 118.426C71.3044 119.388 70.7311 120.113 69.8583 120.224C68.9933 120.334 68.2497 119.777 68.1277 118.815C68.006 117.853 68.5874 117.127 69.4524 117.017ZM64.2172 121.99C63.9814 121.996 63.8134 122.181 63.8192 122.41C63.8244 122.623 64.0095 122.792 64.2372 122.786C64.4649 122.78 64.641 122.594 64.6355 122.381C64.63 122.161 64.4449 121.984 64.2172 121.99ZM64.3725 116.931L63.8149 116.945L63.9194 121.091L64.4771 121.076L64.3725 116.931ZM59.3354 117.167L58.7789 117.124L58.3372 122.958L58.8934 123L59.3354 117.167ZM52.9852 121.383C52.7532 121.341 52.5513 121.49 52.511 121.715C52.4739 121.924 52.6214 122.127 52.8456 122.167C53.0698 122.207 53.2795 122.061 53.3169 121.851C53.3554 121.634 53.2094 121.423 52.9852 121.383ZM54.1489 116.458L53.5996 116.36L52.8731 120.442L53.4223 120.54L54.1489 116.458ZM45.1263 120.772L45.8441 120.976L47.1457 120.331L46.6167 120.18L45.1263 120.772ZM46.8349 119.611C47.462 119.79 48.1072 119.761 48.6046 119.534L48.4762 119.063C48.0698 119.258 47.5347 119.303 47.0208 119.156C46.2801 118.945 46 118.464 46.1932 117.781L46.2619 117.538L47.5237 117.898C48.6648 118.223 49.2039 117.819 49.3777 117.205C49.573 116.515 49.1544 115.887 48.2549 115.631C47.5976 115.444 47.0582 115.561 46.7005 115.901L46.8766 115.279L46.3627 115.133L45.6631 117.605C45.3711 118.637 45.8071 119.318 46.8349 119.611ZM48.0518 116.032C48.6865 116.213 48.9754 116.607 48.8444 117.07C48.7285 117.479 48.3934 117.711 47.6225 117.492L46.3754 117.136L46.56 116.484C46.9197 116.021 47.4473 115.86 48.0518 116.032ZM41.1474 116.928L40.8505 117.684L41.3473 117.881L42.8636 114.022L42.3444 113.817L41.5721 115.783C41.2147 116.692 40.5235 117.012 39.7196 116.694C39.6828 116.679 39.6419 116.655 39.5982 116.637L39.3992 117.143C40.1081 117.424 40.7045 117.346 41.1474 116.928ZM35.0669 116.583C34.8523 116.486 34.6202 116.58 34.5264 116.788C34.4392 116.982 34.5325 117.215 34.7402 117.309C34.9476 117.403 35.1869 117.313 35.274 117.119C35.3647 116.917 35.2746 116.677 35.0669 116.583ZM37.3992 112.095L36.8908 111.865L35.1886 115.644L35.6967 115.874L37.3992 112.095ZM30.6367 113.508C31.2022 113.834 31.8352 113.963 32.3723 113.863L32.3618 113.376C31.9203 113.466 31.3905 113.379 30.9273 113.112C30.2599 112.726 30.1046 112.191 30.4569 111.576L30.5823 111.357L31.7196 112.014C32.748 112.607 33.3685 112.347 33.6857 111.793C34.042 111.171 33.7877 110.46 32.9774 109.993C32.3847 109.651 31.8332 109.632 31.4038 109.876L31.7251 109.316L31.2619 109.048L29.9852 111.276C29.4525 112.206 29.7106 112.973 30.6367 113.508ZM32.6831 110.332C33.2549 110.662 33.44 111.115 33.201 111.532C32.9896 111.9 32.6081 112.044 31.9137 111.643L30.79 110.995L31.1266 110.407C31.5875 110.046 32.1382 110.018 32.6831 110.332ZM26.602 106.006C25.7251 105.379 24.9441 105.393 24.5299 105.978C23.611 107.275 26.2813 108.145 25.6339 109.059C25.4062 109.38 24.969 109.426 24.3607 108.992C24.0151 108.745 23.7222 108.41 23.5733 107.994L23.1153 108.219C23.2605 108.613 23.6478 109.073 24.0829 109.384C24.9409 109.996 25.706 109.923 26.0976 109.37C27.0446 108.034 24.3705 107.169 24.9936 106.289C25.2303 105.955 25.6475 105.924 26.2877 106.381C26.7616 106.719 27.0976 107.211 27.2164 107.615L27.6761 107.401C27.5693 106.967 27.1591 106.403 26.602 106.006ZM17.5507 100.572C16.6524 101.431 16.6127 102.635 17.4149 103.479C18.2173 104.324 19.4392 104.342 20.3262 103.493C21.2132 102.645 21.2431 101.396 20.354 100.46C19.9041 99.9868 19.3378 99.7333 18.7645 99.77L18.7199 100.248C19.1982 100.226 19.6379 100.426 19.985 100.792C20.6084 101.448 20.6486 102.324 20.0664 102.968L17.6814 100.458C17.6359 100.501 17.5849 100.539 17.5507 100.572ZM17.7619 103.148C17.2034 102.56 17.2063 101.74 17.7431 101.128L19.7651 103.257C19.1307 103.766 18.3146 103.73 17.7619 103.148ZM14.3578 93.3045C13.8891 92.6428 13.246 92.2117 12.5284 92.1239L12.4415 92.6408C13.0788 92.7373 13.5577 93.0728 13.9218 93.5868C14.6912 94.6727 14.4757 96.0554 13.4128 96.8139C12.3503 97.5724 10.978 97.3229 10.2083 96.2371C9.84419 95.7231 9.68573 95.1591 9.79726 94.5279L9.28249 94.4407C9.12953 95.1498 9.33087 95.896 9.79523 96.5516C10.7558 97.9073 12.4328 98.2195 13.7454 97.2828C15.0577 96.3461 15.3141 94.6541 14.3578 93.3045ZM10.9346 87.8043C10.3833 86.7237 9.19529 86.3333 8.10462 86.8938C7.01366 87.4546 6.64228 88.6463 7.19356 89.7269C7.74512 90.8078 8.92965 91.2087 10.0203 90.6482C11.111 90.0874 11.4861 88.8849 10.9346 87.8043ZM10.494 88.0308C10.8952 88.8166 10.6226 89.701 9.7625 90.1429C8.90242 90.5848 8.02815 90.29 7.62722 89.5042C7.22629 88.7184 7.50236 87.8412 8.36244 87.399C9.22252 86.9571 10.093 87.2447 10.494 88.0308ZM4.08058 82.8751C4.34304 83.5426 4.81784 83.9563 5.39518 84.0499L4.68632 84.3305L4.88215 84.829L8.72658 83.3077L8.52177 82.787L6.50468 83.5853C5.6278 83.9324 4.91141 83.6141 4.5858 82.7853C4.29785 82.0518 4.54698 81.4616 5.35839 81.1406L7.53626 80.2786L7.33145 79.7579L5.1026 80.64C3.99889 81.0767 3.71181 81.9363 4.08058 82.8751ZM6.07218 75.4224C5.77815 74.3833 5.16054 73.9036 4.47282 74.0999C2.94733 74.5345 4.48788 76.8902 3.41344 77.1964C3.03568 77.3042 2.66575 77.0652 2.4621 76.3448C2.34623 75.9352 2.32653 75.4901 2.46935 75.0723L1.97224 74.9598C1.83986 75.3584 1.85521 75.9605 2.00092 76.4762C2.28858 77.4923 2.93111 77.9159 3.58087 77.7307C5.153 77.2824 3.60608 74.9287 4.64026 74.6339C5.03336 74.522 5.37809 74.7595 5.59275 75.518C5.7515 76.0794 5.70747 76.6739 5.54814 77.0635L6.04003 77.1853C6.22745 76.7798 6.25874 76.0823 6.07218 75.4224ZM4.15445 69.2043C4.32102 69.3346 4.43082 69.5471 4.47079 69.7721C4.55248 70.2303 4.33377 70.5257 3.85405 70.6115L1.4259 71.0467L1.20486 69.805L0.740786 69.8881L0.961817 71.1298L0.0724792 71.2894L0.170393 71.8403L1.05973 71.681L1.1898 72.4108L1.65359 72.3273L1.52381 71.5979L3.98325 71.1571C4.73325 71.0225 5.09043 70.5181 4.9537 69.7497C4.89721 69.4314 4.74628 69.1221 4.51425 68.9395L4.15445 69.2043ZM1.12607 65.7863L0.319292 65.8479L0.359559 66.3826L4.48006 66.068L4.43777 65.5098L2.33841 65.67C1.36709 65.7441 0.778735 65.2595 0.713266 64.3946C0.710369 64.3554 0.714715 64.3077 0.710949 64.2603L0.170683 64.3016C0.228331 65.0641 0.557994 65.5688 1.12607 65.7863ZM0.198203 57.8178L2.36564 57.8731C3.30799 57.8969 3.85202 58.4548 3.83001 59.322C3.81031 60.1099 3.35115 60.5559 2.47137 60.5335L0.130996 60.4739L0.117091 61.0335L2.51222 61.0946C3.6982 61.1245 4.3048 60.446 4.33145 59.3898C4.34797 58.7278 4.07103 58.1844 3.57566 57.8801L4.32972 57.8992L4.34304 57.3631L0.212108 57.2582L0.198203 57.8178ZM4.63157 52.1641C4.47253 53.0566 3.73006 53.5962 2.7712 53.4244C1.81987 53.254 1.30191 52.4883 1.46066 51.5958C1.54496 51.1222 1.81552 50.7224 2.27526 50.5163L2.06987 50.0552C1.47833 50.2855 1.10405 50.8189 0.981227 51.5097C0.764251 52.7284 1.45747 53.7657 2.67155 53.9832C3.76975 54.18 4.70254 53.6023 5.03452 52.5886L5.64634 52.8746L5.67792 52.6959C5.73585 52.3699 5.91054 52.2412 6.1194 52.2787C6.35144 52.3202 6.45254 52.5144 6.39721 52.8249C6.3639 53.0113 6.28713 53.1735 6.15909 53.3107L6.42936 53.4953C6.58637 53.3314 6.67763 53.1314 6.7234 52.8752C6.81581 52.3554 6.62432 51.9525 6.20659 51.8778C5.86621 51.8167 5.5774 52.0054 5.46268 52.4252L5.11592 52.267L5.11882 52.2513C5.24165 51.5606 5.06668 50.9285 4.59883 50.5084L4.24715 50.8698C4.60752 51.2228 4.71558 51.6905 4.63157 52.1641ZM1.87636 44.4242C1.99021 44.0221 1.7405 43.6642 1.25353 43.509L1.16112 43.8352C1.44415 43.9323 1.58233 44.1355 1.51802 44.3631C1.4343 44.6588 0.856082 44.7399 0.723116 45.21C0.609269 45.6121 0.859268 45.9702 1.3613 46.1296L1.45342 45.8034C1.15562 45.7022 1.01686 45.4987 1.08146 45.271C1.16721 44.9678 1.74339 44.8943 1.87636 44.4242ZM6.403 46.2633C6.73354 45.0954 6.12954 43.9971 4.9508 43.6613C3.77178 43.3252 2.69038 43.943 2.35985 45.1111C2.02931 46.279 2.62346 47.3826 3.80249 47.7186C4.98151 48.0547 6.07247 47.4314 6.403 46.2633ZM5.92705 46.1275C5.68661 46.977 4.88649 47.4375 3.95689 47.1727C3.02757 46.9078 2.58812 46.0941 2.82856 45.2446C3.06871 44.3951 3.86651 43.9424 4.79611 44.2073C5.72572 44.4721 6.1672 45.2783 5.92705 46.1275ZM7.39286 37.3947C6.23817 36.9377 5.13302 37.4072 4.7066 38.4928C4.28018 39.5784 4.77728 40.6988 5.9172 41.1497C7.05741 41.6009 8.19877 41.1035 8.67125 39.9008C8.91053 39.292 8.90155 38.6696 8.6278 38.1631L8.17618 38.3233C8.39721 38.7498 8.40126 39.2344 8.21673 39.7037C7.88533 40.5473 7.10984 40.9523 6.28278 40.6927L7.55074 37.4657C7.49223 37.4424 7.43661 37.4119 7.39286 37.3947ZM5.15243 38.6693C5.44935 37.9137 6.19153 37.5718 6.97021 37.8038L5.89547 40.5395C5.16865 40.1755 4.85839 39.4173 5.15243 38.6693ZM11.2228 34.5564C11.7593 33.62 11.6707 32.8414 11.051 32.4838C9.67646 31.6904 9.06986 34.4418 8.10144 33.8828C7.76105 33.6865 7.67357 33.2539 8.04553 32.6045C8.257 32.2355 8.56088 31.9108 8.95891 31.7221L8.69211 31.2863C8.31551 31.4692 7.89634 31.9 7.63012 32.3649C7.1052 33.2807 7.2515 34.038 7.83695 34.3761C9.25352 35.1934 9.85462 32.439 10.7865 32.9769C11.1405 33.1813 11.2115 33.595 10.8199 34.2787C10.5302 34.7843 10.0751 35.1675 9.68602 35.3248L9.94211 35.7635C10.3624 35.6152 10.8818 35.1512 11.2228 34.5564ZM12.1437 26.5437C12.4015 26.1797 12.7124 26.126 13.0762 26.3856C13.4398 26.6452 13.4913 26.9577 13.2335 27.3214C12.9748 27.6866 12.664 27.7404 12.3002 27.4807C11.9366 27.2211 11.885 26.9086 12.1437 26.5437Z" fill="#4D4D4D"/>
</g>
<defs>
<clipPath id="clip0">
<rect width="122" height="123" fill="white"/>
</clipPath>
</defs>
</svg>
