<svg width="122" height="121" viewBox="0 0 122 121" fill="none" xmlns="http://www.w3.org/2000/svg">
<path d="M93.1427 16.4456C93.5316 15.6195 94.0526 14.8387 94.7199 14.1268L94.7444 14.1004L94.7841 14.0579L94.8133 14.0277L94.8501 13.9899L94.8832 13.9569L94.9172 13.922L94.954 13.887L94.9936 13.8464L95.0238 13.8172L95.0587 13.7832L95.0889 13.7558L95.1371 13.7105C95.8393 13.0534 96.618 12.535 97.442 12.1489L86.1874 0.885582C85.5984 0.296453 84.8197 0 84.0373 0C83.2586 0 82.478 0.293621 81.89 0.88275C81.301 1.46999 81.0056 2.25172 81.0056 3.03251C81.0056 3.81235 81.301 4.59313 81.89 5.18226L93.1427 16.4456ZM109.316 24.0335C108.93 24.8567 108.41 25.6356 107.754 26.338L107.709 26.3862L107.681 26.4155L107.646 26.4523L107.617 26.4816L107.576 26.5212L107.542 26.5571L107.506 26.592L107.474 26.6251L107.436 26.6619L107.405 26.6911L107.366 26.7308L107.336 26.7563L107.285 26.8044L107.256 26.8318C106.574 27.4559 105.819 27.9553 105.017 28.3292L116.271 39.5953C116.86 40.1845 117.64 40.479 118.421 40.479C119.202 40.48 119.98 40.1854 120.569 39.5963C121.158 39.0081 121.453 38.2292 121.453 37.4465C121.453 36.6667 121.158 35.8878 120.569 35.2968L109.316 24.0335ZM104.747 92.6954C105.66 93.1249 106.516 93.715 107.271 94.4712L107.306 94.5062L107.346 94.5477L107.376 94.577L107.41 94.6129L107.437 94.6421L107.483 94.6903L107.544 94.7564L107.576 94.7932C108.188 95.4682 108.676 96.2103 109.046 96.9977L120.299 85.7467C120.888 85.1585 121.183 84.3786 121.183 83.5969C121.183 82.8161 120.888 82.0363 120.3 81.4481C119.71 80.8571 118.931 80.5625 118.151 80.5625C117.371 80.5616 116.589 80.8571 116.001 81.4453L104.747 92.6954ZM97.1711 108.866C96.3462 108.48 95.5703 107.96 94.8662 107.302L94.819 107.257L94.7888 107.229L94.7529 107.195L94.7237 107.166L94.6821 107.126L94.6463 107.091L94.6123 107.055L94.5783 107.02L94.5424 106.985L94.5085 106.949L94.4745 106.913L94.4405 106.877L94.4084 106.841L94.3744 106.806C93.7477 106.122 93.2494 105.365 92.8737 104.564L81.6191 115.815C81.0301 116.403 80.7357 117.183 80.7357 117.964C80.7357 118.745 81.0301 119.524 81.6191 120.114C82.2081 120.704 82.9868 121 83.7673 121C84.5498 121 85.3285 120.706 85.9174 120.117L97.1711 108.866ZM29.0668 104.255C28.6902 105.056 28.1919 105.812 27.5652 106.494L27.5387 106.523L27.4915 106.574L27.4651 106.602L27.4255 106.643L27.3972 106.672L27.3603 106.711L27.3273 106.745L27.2933 106.781L27.2575 106.814L27.2159 106.854L27.1867 106.883L27.1518 106.917L27.1215 106.947L27.0734 106.991C26.3693 107.647 25.5925 108.167 24.7685 108.553L36.0222 119.816C36.6111 120.406 37.3908 120.701 38.1723 120.701C38.9528 120.702 39.7315 120.407 40.329 119.809C40.9151 119.216 41.2039 118.444 41.2039 117.67C41.2039 116.888 40.9095 116.109 40.3205 115.52L29.0668 104.255ZM12.8938 96.6691C13.2808 95.844 13.7999 95.0679 14.4568 94.3627L14.5021 94.3155L14.5295 94.2852L14.5635 94.2503L14.5937 94.221L14.6333 94.1795L14.6683 94.1436L14.7032 94.1087L14.7362 94.0766L14.7749 94.0398L14.8051 94.0115L14.8457 93.9718L14.8825 93.9359C15.5838 93.2807 16.3644 92.7577 17.1931 92.3706L5.93849 81.1073C5.35047 80.5181 4.56895 80.2236 3.78932 80.2226C3.00875 80.2207 2.22818 80.5153 1.64015 81.1044C1.05118 81.6926 0.756699 82.4725 0.756699 83.2532C0.756699 84.034 1.05118 84.8158 1.63921 85.4039L12.8938 96.6691ZM16.9213 28.5463C16.1086 28.1649 15.3393 27.6542 14.6484 27.0112L14.6116 26.9772L14.5758 26.9423L14.5408 26.9092L14.504 26.8743L14.4682 26.8403L14.4332 26.8054L14.3974 26.7714L14.3634 26.7365L14.3228 26.694L14.2945 26.6638L14.2596 26.6288L14.2322 26.5996L14.1869 26.5514L14.1236 26.4853L14.0916 26.4485C13.4828 25.7744 12.9938 25.0314 12.6248 24.2431L1.37021 35.495C0.78124 36.0832 0.486755 36.864 0.486755 37.6439C0.486755 38.4246 0.78124 39.2035 1.37021 39.7927C1.96012 40.3837 2.73881 40.6783 3.51843 40.6801C4.29995 40.6801 5.07958 40.3856 5.66949 39.7974L16.9213 28.5463ZM24.4976 12.3745C25.3226 12.7616 26.1003 13.28 26.8035 13.938L26.8507 13.9843L26.8818 14.0116L26.9167 14.0466L26.946 14.0749L26.9875 14.1164L27.0224 14.1504L27.0583 14.1854L27.0866 14.2156L27.1329 14.2637L27.1612 14.293L27.1952 14.3289L27.2292 14.3638L27.2575 14.3959C27.9021 15.0917 28.4137 15.8621 28.7969 16.6769L40.0505 5.42679C40.6376 4.83766 40.9321 4.05782 40.9321 3.27703C40.9321 2.4953 40.6376 1.71641 40.0505 1.12728C39.4616 0.538147 38.681 0.241694 37.9023 0.241694C37.1208 0.241694 36.3412 0.535315 35.7522 1.12539L24.4976 12.3745ZM50.6265 49.8636C53.5223 46.9717 57.3138 45.5263 61.1062 45.5291C64.8977 45.531 68.6892 46.9821 71.584 49.8758C74.476 52.7724 75.9229 56.5659 75.9229 60.3603C75.9229 64.1509 74.476 67.9444 71.584 70.8371C68.6892 73.7309 64.8977 75.1754 61.1062 75.1725C57.3138 75.1688 53.5223 73.7214 50.6284 70.8239C47.7345 67.9283 46.2885 64.1339 46.2885 60.3414C46.2885 56.5479 47.7345 52.7563 50.6265 49.8636ZM98.0621 23.2451L98.1008 23.2876L98.1216 23.3084L98.1404 23.3273L98.1603 23.348L98.181 23.3688L98.2631 23.4453C99.0985 24.2204 100.166 24.6084 101.23 24.6084C102.296 24.6103 103.361 24.2232 104.198 23.4472L104.243 23.4066L104.287 23.3622L104.318 23.332L104.361 23.2876L104.435 23.2111C105.212 22.3746 105.598 21.3087 105.598 20.2438C105.598 19.125 105.172 18.0053 104.318 17.1518C103.467 16.2992 102.348 15.8716 101.23 15.8706C100.147 15.8706 99.0635 16.269 98.2169 17.0725L98.1725 17.1169L98.1404 17.148L98.097 17.1924L98.0243 17.2679C97.2485 18.1053 96.8615 19.1703 96.8615 20.2372C96.8615 21.3191 97.2608 22.4039 98.0621 23.2451ZM97.9583 97.6029L97.912 97.6482L97.8922 97.6661L97.8705 97.6888C97.0172 98.5413 96.5916 99.6601 96.5916 100.778C96.5916 101.844 96.9785 102.91 97.7544 103.748L97.7959 103.793L97.8384 103.837L97.8705 103.868L97.9148 103.912C98.7643 104.739 99.862 105.15 100.96 105.151C102.077 105.151 103.196 104.724 104.048 103.874C104.902 103.019 105.327 101.902 105.327 100.784C105.327 99.7007 104.928 98.6159 104.123 97.769L104.08 97.7256L104.048 97.6926C103.196 96.8391 102.077 96.4123 100.96 96.4114C99.879 96.4114 98.7983 96.807 97.9583 97.6029ZM24.1871 97.4962L24.1295 97.4348L24.1097 97.4141L24.0899 97.3942L24.0691 97.3735L24.0493 97.3527L24.0285 97.3338L24.0087 97.314L23.9889 97.2942L23.9483 97.2564C23.1111 96.4803 22.0464 96.0932 20.9808 96.0923C19.8831 96.0923 18.7854 96.502 17.9359 97.3272L17.8915 97.3697L17.8481 97.4141L17.7754 97.4915C16.9996 98.328 16.6136 99.3939 16.6136 100.46C16.6136 101.579 17.0373 102.696 17.8915 103.549C18.7438 104.403 19.8623 104.831 20.9808 104.832C22.0464 104.832 23.1111 104.446 23.9492 103.671L23.9936 103.627L24.037 103.586L24.0691 103.554L24.1135 103.509L24.1446 103.477C24.9488 102.631 25.348 101.547 25.348 100.465C25.348 99.3995 24.9611 98.3336 24.1871 97.4962ZM23.718 23.6313L23.7605 23.5907L23.7803 23.5708L23.7992 23.5529L23.8209 23.5312L23.8407 23.5114L23.8813 23.4679C24.6807 22.622 25.0781 21.5438 25.0781 20.4628C25.0781 19.379 24.6788 18.2961 23.8737 17.4492L23.8313 17.4039L23.7992 17.3718L23.7548 17.3302L23.7227 17.2981L23.6793 17.2556C22.8411 16.4796 21.7755 16.0915 20.7099 16.0915C19.5914 16.0906 18.4739 16.5164 17.6216 17.3689C16.7674 18.2196 16.3417 19.3384 16.3417 20.459C16.3417 21.5551 16.7523 22.6541 17.5904 23.518L17.6216 23.5491L17.665 23.5916C18.5154 24.4177 19.6131 24.8303 20.7099 24.8303C21.7935 24.8312 22.8761 24.4309 23.718 23.6313ZM24.4844 92.2488C25.3782 92.6312 26.2221 93.1655 26.9781 93.8519L27.0168 93.8887L27.0583 93.9255L27.098 93.9624L27.1319 93.9954L27.1763 94.0369L27.2131 94.0728L27.2537 94.1125L27.2933 94.1512L27.3311 94.1908L27.3707 94.2314L27.4066 94.2692L27.4491 94.3136L27.4812 94.3476L27.5199 94.3863L27.5557 94.4269L27.5916 94.4656C28.2778 95.2218 28.812 96.0668 29.1924 96.9609L50.3471 84.6996C53.762 82.7217 57.4317 81.7332 61.1062 81.736C64.7787 81.7389 68.4485 82.7302 71.8624 84.7138L92.9001 96.9316C93.3268 96.0394 93.9072 95.202 94.6463 94.4627L94.6906 94.4203L94.7312 94.3797L94.7775 94.3362L94.8171 94.2985L94.8643 94.2522C95.7393 93.4355 96.7397 92.8238 97.7997 92.4253L85.455 71.126C83.4747 67.7102 82.4837 64.0376 82.4837 60.364C82.4837 56.6886 83.4747 53.0179 85.455 49.6049L97.7232 28.4519C96.7992 28.0573 95.928 27.4974 95.1522 26.7752L95.1125 26.7393L95.0786 26.7072L95.0332 26.6638L94.9974 26.6288L94.9568 26.5882L94.9172 26.5495L94.8794 26.5108L94.8388 26.4702L94.8039 26.4334L94.7605 26.389L94.7284 26.3541L94.6906 26.3135L94.6538 26.2748L94.6189 26.2351L94.5821 26.1945L94.5453 26.1539C93.895 25.4194 93.3853 24.6037 93.0172 23.7398L71.8624 36.0011C68.4485 37.979 64.7787 38.9675 61.1062 38.9656C57.4317 38.9637 53.762 37.9715 50.3471 35.9879L29.0612 23.6247C28.6742 24.65 28.0918 25.6186 27.3132 26.4721L27.2735 26.5174L27.2329 26.5609L27.1867 26.609L27.1489 26.6496L27.1055 26.694L27.0649 26.7365L27.0224 26.778L26.9894 26.812L26.9469 26.8526L26.9196 26.88L26.8837 26.913L26.8526 26.9432L26.8157 26.9791L26.777 27.015L26.7449 27.0442L26.7081 27.0763C26.0493 27.6768 25.3226 28.1593 24.5543 28.5237L36.7546 49.5756C38.7358 52.9914 39.7259 56.6641 39.7259 60.3367C39.7259 64.0121 38.7358 67.6819 36.7546 71.0958L24.4844 92.2488Z" fill="#4D4D4D"/>
</svg>
