<svg width="60" height="60" viewBox="0 0 60 60" fill="none" xmlns="http://www.w3.org/2000/svg">
<circle cx="30" cy="30" r="30" fill="#FFA061"/>
<path d="M49 29.0235C49 38.9778 40.8686 47.047 30.8363 47.047C27.6514 47.047 24.6593 46.233 22.0562 44.8044L12 48L15.2786 38.3298C13.6247 35.614 12.6722 32.4288 12.6722 29.0235C12.6722 19.0693 20.8044 11 30.8363 11C40.8695 11 49 19.0693 49 29.0235ZM30.8363 13.8704C22.4151 13.8704 15.5652 20.6681 15.5652 29.0235C15.5652 32.3391 16.646 35.4097 18.4742 37.9076L16.5662 43.5353L22.4348 41.6701C24.846 43.2533 27.7345 44.1767 30.8367 44.1767C39.2567 44.1767 46.1078 37.3798 46.1078 29.0243C46.1078 20.6689 39.2571 13.8704 30.8363 13.8704ZM40.0086 33.1745C39.8964 32.9907 39.5999 32.8797 39.1551 32.659C38.7095 32.4382 36.5199 31.3689 36.1129 31.2221C35.7047 31.075 35.407 31.001 35.1106 31.4429C34.8142 31.8853 33.9607 32.8797 33.7005 33.1745C33.4407 33.4701 33.1813 33.5071 32.7356 33.2859C32.2908 33.0652 30.8564 32.5981 29.1557 31.0935C27.8323 29.9226 26.9385 28.4772 26.6787 28.0344C26.4193 27.5924 26.6516 27.3536 26.874 27.1336C27.0746 26.9355 27.3196 26.6177 27.5421 26.3599C27.7653 26.1018 27.8393 25.918 27.9869 25.6228C28.1361 25.328 28.0617 25.0703 27.9499 24.8487C27.8389 24.6279 26.9476 22.454 26.5768 21.5693C26.2059 20.6854 25.8355 20.8325 25.5753 20.8325C25.3159 20.8325 25.0187 20.7955 24.7218 20.7955C24.425 20.7955 23.9424 20.9061 23.5341 21.3481C23.1263 21.7904 21.9764 22.8593 21.9764 25.0329C21.9764 27.2068 23.5711 29.3072 23.7944 29.6015C24.0168 29.8959 26.8736 34.502 31.3999 36.271C35.9267 38.0392 35.9267 37.4492 36.7431 37.3752C37.5588 37.3017 39.3767 36.3068 39.7492 35.2757C40.1192 34.243 40.1192 33.3587 40.0086 33.1745Z" fill="white"/>
</svg>
